<mxfile host="app.diagrams.net" agent="Mozilla/5.0 (Macintosh; Intel Mac OS X 10_15_7) AppleWebKit/537.36 (KHTML, like Gecko) Chrome/139.0.0.0 Safari/537.36" version="28.2.1">
  <diagram name="Page-1" id="kxSL7I1HlcYFvT0LqZUk">
    <mxGraphModel dx="1426" dy="790" grid="1" gridSize="10" guides="1" tooltips="1" connect="1" arrows="1" fold="1" page="1" pageScale="1" pageWidth="827" pageHeight="1169" math="0" shadow="0">
      <root>
        <mxCell id="0" />
        <mxCell id="1" parent="0" />
        <mxCell id="uzxge04KYRy5R-QWPpid-1" value="" style="swimlane;startSize=0;" parent="1" vertex="1">
          <mxGeometry x="581.95" y="170" width="120" height="110" as="geometry" />
        </mxCell>
        <mxCell id="uzxge04KYRy5R-QWPpid-2" value="JIRA" style="text;html=1;align=center;verticalAlign=middle;whiteSpace=wrap;rounded=0;" parent="uzxge04KYRy5R-QWPpid-1" vertex="1">
          <mxGeometry x="30" y="80" width="60" height="30" as="geometry" />
        </mxCell>
        <mxCell id="uzxge04KYRy5R-QWPpid-3" value="" style="image;html=1;image=img/lib/atlassian/Jira_Logo.svg;" parent="uzxge04KYRy5R-QWPpid-1" vertex="1">
          <mxGeometry x="35.000000000000014" y="20" width="50" height="50" as="geometry" />
        </mxCell>
        <mxCell id="uzxge04KYRy5R-QWPpid-4" value="" style="shape=mxgraph.sap.icon;labelPosition=center;verticalLabelPosition=bottom;align=center;verticalAlign=top;strokeWidth=1;strokeColor=#D5DADD;fillColor=#EDEFF0;gradientColor=#FCFCFC;gradientDirection=west;aspect=fixed;SAPIcon=Service_Ticket_Intelligence2" parent="1" vertex="1">
          <mxGeometry x="611.95" y="340" width="60" height="60" as="geometry" />
        </mxCell>
        <mxCell id="uzxge04KYRy5R-QWPpid-5" value="" style="swimlane;startSize=0;" parent="1" vertex="1">
          <mxGeometry x="581.95" y="330" width="120" height="110" as="geometry" />
        </mxCell>
        <mxCell id="uzxge04KYRy5R-QWPpid-6" value="Create" style="text;html=1;align=center;verticalAlign=middle;whiteSpace=wrap;rounded=0;" parent="uzxge04KYRy5R-QWPpid-5" vertex="1">
          <mxGeometry x="30" y="80" width="60" height="30" as="geometry" />
        </mxCell>
        <mxCell id="uzxge04KYRy5R-QWPpid-7" value="" style="swimlane;startSize=0;" parent="1" vertex="1">
          <mxGeometry x="581.95" y="490" width="120" height="110" as="geometry" />
        </mxCell>
        <mxCell id="uzxge04KYRy5R-QWPpid-8" value="Ticket Data" style="text;html=1;align=center;verticalAlign=middle;whiteSpace=wrap;rounded=0;" parent="uzxge04KYRy5R-QWPpid-7" vertex="1">
          <mxGeometry x="31.95" y="70" width="68.05" height="30" as="geometry" />
        </mxCell>
        <mxCell id="uzxge04KYRy5R-QWPpid-9" value="" style="aspect=fixed;sketch=0;html=1;dashed=0;whitespace=wrap;verticalLabelPosition=bottom;verticalAlign=top;fillColor=#2875E2;strokeColor=#ffffff;points=[[0.005,0.63,0],[0.1,0.2,0],[0.9,0.2,0],[0.5,0,0],[0.995,0.63,0],[0.72,0.99,0],[0.5,1,0],[0.28,0.99,0]];shape=mxgraph.kubernetes.icon2;kubernetesLabel=1;prIcon=api" parent="uzxge04KYRy5R-QWPpid-7" vertex="1">
          <mxGeometry x="36.94999999999999" y="10" width="50" height="48" as="geometry" />
        </mxCell>
        <mxCell id="uzxge04KYRy5R-QWPpid-10" style="edgeStyle=orthogonalEdgeStyle;rounded=0;orthogonalLoop=1;jettySize=auto;html=1;exitX=0.5;exitY=1;exitDx=0;exitDy=0;entryX=0.5;entryY=0;entryDx=0;entryDy=0;" parent="1" source="uzxge04KYRy5R-QWPpid-2" target="uzxge04KYRy5R-QWPpid-5" edge="1">
          <mxGeometry relative="1" as="geometry" />
        </mxCell>
        <mxCell id="uzxge04KYRy5R-QWPpid-11" style="edgeStyle=orthogonalEdgeStyle;rounded=0;orthogonalLoop=1;jettySize=auto;html=1;exitX=0.5;exitY=1;exitDx=0;exitDy=0;entryX=0.5;entryY=0;entryDx=0;entryDy=0;" parent="1" source="uzxge04KYRy5R-QWPpid-6" target="uzxge04KYRy5R-QWPpid-7" edge="1">
          <mxGeometry relative="1" as="geometry" />
        </mxCell>
        <mxCell id="uzxge04KYRy5R-QWPpid-12" value="n8n" style="swimlane;whiteSpace=wrap;html=1;startSize=23;" parent="1" vertex="1">
          <mxGeometry x="360" y="630" width="550" height="200" as="geometry" />
        </mxCell>
        <mxCell id="uzxge04KYRy5R-QWPpid-13" value="" style="verticalLabelPosition=bottom;shadow=0;dashed=0;align=center;html=1;verticalAlign=top;shape=mxgraph.electrical.logic_gates.schmitt_trigger;" parent="uzxge04KYRy5R-QWPpid-12" vertex="1">
          <mxGeometry x="50" y="70" width="60" height="60" as="geometry" />
        </mxCell>
        <mxCell id="uzxge04KYRy5R-QWPpid-14" value="" style="points=[];aspect=fixed;html=1;align=center;shadow=0;dashed=0;fillColor=#FF6A00;strokeColor=none;shape=mxgraph.alibaba_cloud.multimediaai;" parent="uzxge04KYRy5R-QWPpid-12" vertex="1">
          <mxGeometry x="250" y="69.99999999999997" width="60" height="59.1" as="geometry" />
        </mxCell>
        <mxCell id="uzxge04KYRy5R-QWPpid-15" value="" style="swimlane;startSize=0;" parent="uzxge04KYRy5R-QWPpid-12" vertex="1">
          <mxGeometry x="20" y="60" width="120" height="110" as="geometry" />
        </mxCell>
        <mxCell id="uzxge04KYRy5R-QWPpid-16" value="Webhook Trigger" style="text;html=1;align=center;verticalAlign=middle;whiteSpace=wrap;rounded=0;" parent="uzxge04KYRy5R-QWPpid-15" vertex="1">
          <mxGeometry x="30" y="80" width="60" height="30" as="geometry" />
        </mxCell>
        <mxCell id="uzxge04KYRy5R-QWPpid-17" value="" style="swimlane;startSize=0;" parent="uzxge04KYRy5R-QWPpid-12" vertex="1">
          <mxGeometry x="220" y="60" width="120" height="110" as="geometry" />
        </mxCell>
        <mxCell id="uzxge04KYRy5R-QWPpid-18" value="Process" style="text;html=1;align=center;verticalAlign=middle;whiteSpace=wrap;rounded=0;" parent="uzxge04KYRy5R-QWPpid-17" vertex="1">
          <mxGeometry x="30" y="80" width="60" height="30" as="geometry" />
        </mxCell>
        <mxCell id="uzxge04KYRy5R-QWPpid-19" value="" style="swimlane;startSize=0;" parent="uzxge04KYRy5R-QWPpid-12" vertex="1">
          <mxGeometry x="410" y="60" width="120" height="110" as="geometry" />
        </mxCell>
        <mxCell id="uzxge04KYRy5R-QWPpid-20" value="Drive" style="text;html=1;align=center;verticalAlign=middle;whiteSpace=wrap;rounded=0;" parent="uzxge04KYRy5R-QWPpid-19" vertex="1">
          <mxGeometry x="30" y="80" width="60" height="30" as="geometry" />
        </mxCell>
        <mxCell id="uzxge04KYRy5R-QWPpid-21" value="" style="shape=image;html=1;verticalAlign=top;verticalLabelPosition=bottom;labelBackgroundColor=#ffffff;imageAspect=0;aspect=fixed;image=https://icons.diagrams.net/icon-cache1/Social_Network-2542/32-1462.svg" parent="uzxge04KYRy5R-QWPpid-19" vertex="1">
          <mxGeometry x="32.5" y="12.049999999999997" width="55" height="55" as="geometry" />
        </mxCell>
        <mxCell id="uzxge04KYRy5R-QWPpid-22" style="edgeStyle=orthogonalEdgeStyle;rounded=0;orthogonalLoop=1;jettySize=auto;html=1;exitX=0.5;exitY=1;exitDx=0;exitDy=0;entryX=0.516;entryY=0.005;entryDx=0;entryDy=0;entryPerimeter=0;" parent="1" target="uzxge04KYRy5R-QWPpid-12" edge="1">
          <mxGeometry relative="1" as="geometry">
            <mxPoint x="641.95" y="600" as="sourcePoint" />
          </mxGeometry>
        </mxCell>
        <mxCell id="y7FQ2Js1gXVT7M8eXXRd-2" value="" style="swimlane;startSize=0;" vertex="1" parent="1">
          <mxGeometry x="1310" y="170" width="120" height="110" as="geometry" />
        </mxCell>
        <mxCell id="y7FQ2Js1gXVT7M8eXXRd-3" value="Scheduler" style="text;html=1;align=center;verticalAlign=middle;whiteSpace=wrap;rounded=0;" vertex="1" parent="y7FQ2Js1gXVT7M8eXXRd-2">
          <mxGeometry x="30" y="80" width="60" height="30" as="geometry" />
        </mxCell>
        <mxCell id="y7FQ2Js1gXVT7M8eXXRd-4" value="" style="verticalLabelPosition=bottom;html=1;verticalAlign=top;align=center;strokeColor=none;fillColor=#00BEF2;shape=mxgraph.azure.scheduler;pointerEvents=1;" vertex="1" parent="y7FQ2Js1gXVT7M8eXXRd-2">
          <mxGeometry x="35" y="10" width="50" height="60" as="geometry" />
        </mxCell>
        <mxCell id="y7FQ2Js1gXVT7M8eXXRd-20" value="" style="edgeStyle=orthogonalEdgeStyle;rounded=0;orthogonalLoop=1;jettySize=auto;html=1;entryX=0.5;entryY=0;entryDx=0;entryDy=0;" edge="1" parent="1" source="y7FQ2Js1gXVT7M8eXXRd-5" target="y7FQ2Js1gXVT7M8eXXRd-11">
          <mxGeometry relative="1" as="geometry" />
        </mxCell>
        <mxCell id="y7FQ2Js1gXVT7M8eXXRd-5" value="" style="swimlane;startSize=0;" vertex="1" parent="1">
          <mxGeometry x="1310" y="330" width="120" height="110" as="geometry" />
        </mxCell>
        <mxCell id="y7FQ2Js1gXVT7M8eXXRd-6" value="/update" style="text;html=1;align=center;verticalAlign=middle;whiteSpace=wrap;rounded=0;" vertex="1" parent="y7FQ2Js1gXVT7M8eXXRd-5">
          <mxGeometry x="31.94999999999999" y="80" width="60" height="30" as="geometry" />
        </mxCell>
        <mxCell id="y7FQ2Js1gXVT7M8eXXRd-7" value="" style="aspect=fixed;sketch=0;html=1;dashed=0;whitespace=wrap;verticalLabelPosition=bottom;verticalAlign=top;fillColor=#2875E2;strokeColor=#ffffff;points=[[0.005,0.63,0],[0.1,0.2,0],[0.9,0.2,0],[0.5,0,0],[0.995,0.63,0],[0.72,0.99,0],[0.5,1,0],[0.28,0.99,0]];shape=mxgraph.kubernetes.icon2;kubernetesLabel=1;prIcon=api" vertex="1" parent="y7FQ2Js1gXVT7M8eXXRd-5">
          <mxGeometry x="36.94999999999999" y="10" width="50" height="48" as="geometry" />
        </mxCell>
        <mxCell id="y7FQ2Js1gXVT7M8eXXRd-11" value="" style="swimlane;startSize=0;" vertex="1" parent="1">
          <mxGeometry x="1310" y="490" width="120" height="110" as="geometry" />
        </mxCell>
        <mxCell id="y7FQ2Js1gXVT7M8eXXRd-12" value="JIRA" style="text;html=1;align=center;verticalAlign=middle;whiteSpace=wrap;rounded=0;" vertex="1" parent="y7FQ2Js1gXVT7M8eXXRd-11">
          <mxGeometry x="30" y="80" width="60" height="30" as="geometry" />
        </mxCell>
        <mxCell id="y7FQ2Js1gXVT7M8eXXRd-13" value="" style="image;html=1;image=img/lib/atlassian/Jira_Logo.svg;" vertex="1" parent="y7FQ2Js1gXVT7M8eXXRd-11">
          <mxGeometry x="35.000000000000014" y="20" width="50" height="50" as="geometry" />
        </mxCell>
        <mxCell id="y7FQ2Js1gXVT7M8eXXRd-14" style="edgeStyle=orthogonalEdgeStyle;rounded=0;orthogonalLoop=1;jettySize=auto;html=1;exitX=0.5;exitY=1;exitDx=0;exitDy=0;entryX=0.5;entryY=0;entryDx=0;entryDy=0;" edge="1" parent="1" source="y7FQ2Js1gXVT7M8eXXRd-3" target="y7FQ2Js1gXVT7M8eXXRd-5">
          <mxGeometry relative="1" as="geometry" />
        </mxCell>
        <mxCell id="y7FQ2Js1gXVT7M8eXXRd-21" value="&lt;b&gt;&lt;font style=&quot;font-size: 14px;&quot;&gt;Acceptance Criteria Flow&lt;/font&gt;&lt;/b&gt;" style="text;html=1;align=center;verticalAlign=middle;whiteSpace=wrap;rounded=0;" vertex="1" parent="1">
          <mxGeometry x="550" y="120" width="200" height="50" as="geometry" />
        </mxCell>
        <mxCell id="y7FQ2Js1gXVT7M8eXXRd-25" value="&lt;b&gt;&lt;font style=&quot;font-size: 14px;&quot;&gt;Log Work Flow&lt;/font&gt;&lt;/b&gt;" style="text;html=1;align=center;verticalAlign=middle;whiteSpace=wrap;rounded=0;" vertex="1" parent="1">
          <mxGeometry x="1270" y="120" width="200" height="50" as="geometry" />
        </mxCell>
      </root>
    </mxGraphModel>
  </diagram>
</mxfile>
